# xmcd
#
# Track frame offsets: 
#        150
#        25443
#        44271
#        59650
#        74379
#        94504
#        109091
#        124409
#        138292
#        154281
#        169206
#        184953
#        201348
#        219477
#        237168
#        252375
#        267462
#        282321
#
# Disc length: 3920 seconds
#
# Revision: 0
# Processed by: cddbd v1.5.2PL0 Copyright (c) Steve Scherf et al.
# Submitted via: ExactAudioCopy v0.99pb4
#
DISCID=1e0f4e12
DTITLE=Rosannne Cash - The Essential Rosanne Cash - Disc 1
DYEAR=2011
DGENRE=Country
TTITLE0=Can I Still Believe In You
TTITLE1=Baby, Better Start Turnin' Em Down
TTITLE2=No Memories Hangin' Round (Duet with Bobby Bare)
TTITLE3=Seven Year Ache
TTITLE4=Blue Moon With Heartache
TTITLE5=My Babe Thinks He's A Train
TTITLE6=It Hasn't Happened Yet
TTITLE7=I Wonder
TTITLE8=If It Weren't For Him (Duet with Vince Gill)
TTITLE9=I Don't Know Why You Don't Want Me
TTITLE10=Never Be You
TTITLE11=Hold On
TTITLE12=Runaway Train
TTITLE13=The Way We Make A Broken Heart
TTITLE14=If You Change Your Mind
TTITLE15=It's Such A Small World (Duet with Rodney Crowell)
TTITLE16=Tennessee Flat Top Box
TTITLE17=I Don't Want To Spoil The Party
EXTD=
EXTT0=
EXTT1=
EXTT2=
EXTT3=
EXTT4=
EXTT5=
EXTT6=
EXTT7=
EXTT8=
EXTT9=
EXTT10=
EXTT11=
EXTT12=
EXTT13=
EXTT14=
EXTT15=
EXTT16=
EXTT17=
PLAYORDER=
